HIERARCHY
ROOT Hips
{
	OFFSET 0.00000 0.00000 0.00000
	CHANNELS 6 Xposition Yposition Zposition Zrotation Yrotation Xrotation 
	JOINT LHipJoint
	{
		OFFSET 0 0 0
		CHANNELS 3 Zrotation Yrotation Xrotation
		JOINT LeftUpLeg
		{
			OFFSET 1.44960 -1.75505 0.85172
			CHANNELS 3 Zrotation Yrotation Xrotation
			JOINT LeftLeg
			{
				OFFSET 2.40573 -6.60971 0.00000
				CHANNELS 3 Zrotation Yrotation Xrotation
				JOINT LeftFoot
				{
					OFFSET 2.58773 -7.10974 0.00000
					CHANNELS 3 Zrotation Yrotation Xrotation
					JOINT LeftToeBase
					{
						OFFSET 0.18252 -0.50147 1.77316
						CHANNELS 3 Zrotation Yrotation Xrotation
						End Site
						{
							OFFSET 0.00000 -0.00000 0.92990
						}
					}
				}
			}
		}
	}
	JOINT RHipJoint
	{
		OFFSET 0 0 0
		CHANNELS 3 Zrotation Yrotation Xrotation
		JOINT RightUpLeg
		{
			OFFSET -1.40744 -1.75505 0.85172
			CHANNELS 3 Zrotation Yrotation Xrotation
			JOINT RightLeg
			{
				OFFSET -2.43714 -6.69600 0.00000
				CHANNELS 3 Zrotation Yrotation Xrotation
				JOINT RightFoot
				{
					OFFSET -2.51650 -6.91404 0.00000
					CHANNELS 3 Zrotation Yrotation Xrotation
					JOINT RightToeBase
					{
						OFFSET -0.25383 -0.69740 1.96384
						CHANNELS 3 Zrotation Yrotation Xrotation
						End Site
						{
							OFFSET -0.00000 -0.00000 1.04244
						}
					}
				}
			}
		}
	}
	JOINT LowerBack
	{
		OFFSET 0 0 0
		CHANNELS 3 Zrotation Yrotation Xrotation
		JOINT Spine
		{
			OFFSET 0.00579 2.14458 -0.24367
			CHANNELS 3 Zrotation Yrotation Xrotation
			JOINT Spine1
			{
				OFFSET 0.05899 2.16316 -0.04515
				CHANNELS 3 Zrotation Yrotation Xrotation
				JOINT Neck
				{
					OFFSET 0 0 0
					CHANNELS 3 Zrotation Yrotation Xrotation
					JOINT Neck1
					{
						OFFSET -0.01650 1.59577 0.24841
						CHANNELS 3 Zrotation Yrotation Xrotation
						JOINT Head
						{
							OFFSET -0.01016 1.63072 -0.17782
							CHANNELS 3 Zrotation Yrotation Xrotation
							End Site
							{
								OFFSET -0.00250 1.64111 -0.08717
							}
						}
					}
				}
				JOINT LeftShoulder
				{
					OFFSET 0 0 0
					CHANNELS 3 Zrotation Yrotation Xrotation
					JOINT LeftArm
					{
						OFFSET 3.17745 0.95174 -0.45729
						CHANNELS 3 Zrotation Yrotation Xrotation
						JOINT LeftForeArm
						{
							OFFSET 4.93485 -0.00000 0.00000
							CHANNELS 3 Zrotation Yrotation Xrotation
							JOINT LeftHand
							{
								OFFSET 3.41719 -0.00000 -0.00000
								CHANNELS 3 Zrotation Yrotation Xrotation
								JOINT LeftFingerBase
								{
									OFFSET 0 0 0
									CHANNELS 3 Zrotation Yrotation Xrotation
									JOINT LeftHandIndex1
									{
										OFFSET 0.62410 -0.00000 -0.00000
										CHANNELS 3 Zrotation Yrotation Xrotation
										End Site
										{
											OFFSET 0.50317 -0.00000 -0.00000
										}
									}
								}
								JOINT LThumb
								{
									OFFSET 0 0 0
									CHANNELS 3 Zrotation Yrotation Xrotation
									End Site
									{
										OFFSET 0.51085 -0.00000 0.51085
									}
								}
							}
						}
					}
				}
				JOINT RightShoulder
				{
					OFFSET 0 0 0
					CHANNELS 3 Zrotation Yrotation Xrotation
					JOINT RightArm
					{
						OFFSET -2.87924 1.13038 -0.75204
						CHANNELS 3 Zrotation Yrotation Xrotation
						JOINT RightForeArm
						{
							OFFSET -5.22034 -0.00000 0.00000
							CHANNELS 3 Zrotation Yrotation Xrotation
							JOINT RightHand
							{
								OFFSET -3.41809 -0.00000 -0.00000
								CHANNELS 3 Zrotation Yrotation Xrotation
								JOINT RightFingerBase
								{
									OFFSET 0 0 0
									CHANNELS 3 Zrotation Yrotation Xrotation
									JOINT RightHandIndex1
									{
										OFFSET -0.77534 -0.00000 -0.00000
										CHANNELS 3 Zrotation Yrotation Xrotation
										End Site
										{
											OFFSET -0.62510 -0.00000 -0.00000
										}
									}
								}
								JOINT RThumb
								{
									OFFSET 0 0 0
									CHANNELS 3 Zrotation Yrotation Xrotation
									End Site
									{
										OFFSET -0.63464 -0.00000 0.63464
									}
								}
							}
						}
					}
				}
			}
		}
	}
}
MOTION
Frames: 7
Frame Time: .0083333
-1.3852 17.5558 10.1726 -2.0520 7.3863 7.6670 0.0000 0.0000 0.0000 -13.3625 -7.6124 -7.5905 0.9520 6.2135 17.4052 0.7247 -3.3749 -15.2932 0.0007 -0.1713 -0.4706 0.0000 0.0000 0.0000 26.2801 0.9328 -5.6406 -0.3967 -4.0441 11.2009 -0.1593 -11.5760 -18.5243 -0.7070 -5.3739 14.9781 5.0583 -1.5351 -0.5776 3.5418 -2.0508 -0.5863 0.8003 -1.0336 -0.3266 -3.6704 -1.7202 -16.4027 -6.2444 -0.0578 18.7879 -1.5128 -0.9548 8.6068 -0.0000 0.0000 0.0000 -86.0763 7.0785 37.7575 21.6428 -32.5710 -6.3925 -0.0000 -0.0000 3.5469 -1.9424 44.2712 -1.3561 -7.1250 0.0000 -0.0000 -53.7798 66.6187 -31.6599 -0.0000 0.0000 0.0000 82.4766 -1.9548 -14.1513 -7.4221 12.6118 -0.8213 0.0000 0.0000 1.8276 -9.3397 16.9457 -2.7445 7.1250 -0.0000 -0.0000 12.2642 -13.1013 9.3874
-1.3725 17.5588 10.2236 -1.7055 7.7748 7.8003 0.0000 0.0000 0.0000 -13.7972 -7.8724 -7.2643 0.9276 6.1356 17.1783 0.7276 -3.4088 -15.3214 0.0013 -0.2329 -0.6398 0.0000 0.0000 0.0000 25.8778 -0.0358 -5.8693 -0.4014 -4.0676 11.2671 -0.2224 -11.0082 -18.5796 -0.6730 -5.2459 14.6111 5.0128 -1.6341 -0.8975 3.4540 -2.2077 -0.5813 0.7248 -1.1089 -0.1473 -3.6105 -1.7308 -16.8088 -6.3372 -0.0169 19.1590 -1.5612 -0.9594 8.8083 -0.0000 0.0000 0.0000 -86.0894 7.3368 38.0368 21.9828 -32.9576 -6.5765 -0.0000 -0.0000 3.7280 -2.5504 44.7340 -1.7956 -7.1250 0.0000 -0.0000 -55.1650 66.7063 -32.7799 -0.0000 0.0000 0.0000 82.4385 -2.7859 -12.6237 -7.5762 12.8635 -0.8553 0.0000 0.0000 0.0878 -9.3116 16.5571 -2.6752 7.1250 -0.0000 -0.0000 12.2900 -13.4868 9.3059
-1.3598 17.5589 10.2530 -1.6330 8.0473 7.8784 0.0000 0.0000 0.0000 -13.9000 -7.8934 -7.2385 0.9296 6.1420 17.1970 0.7300 -3.6176 -15.3227 0.0011 -0.2182 -0.5995 0.0000 0.0000 0.0000 25.7763 -0.8168 -5.9906 -0.3892 -4.0060 11.0935 -0.2518 -10.5889 -18.4333 -0.6405 -5.1199 14.2509 5.2567 -1.7078 -0.7529 3.4283 -2.2769 -0.8902 0.5748 -1.1546 -0.5589 -3.5253 -1.6946 -16.4771 -6.4931 0.0423 19.4377 -1.6215 -0.9454 8.8450 -0.0000 0.0000 0.0000 -86.0964 7.7004 38.3440 21.7913 -32.7404 -6.4726 -0.0000 -0.0000 3.9609 -2.0218 44.2688 -1.4115 -7.1250 0.0000 -0.0000 -53.8449 66.5929 -31.6781 -0.0000 0.0000 0.0000 82.5421 -4.0974 -12.5027 -7.6681 13.0135 -0.8759 0.0000 0.0000 0.1528 -9.5855 16.3116 -2.7156 7.1250 -0.0000 -0.0000 12.1137 -13.7095 9.1077
-1.3608 17.5572 10.2681 -1.7015 8.2056 7.9114 0.0000 0.0000 0.0000 -13.7892 -8.0760 -7.2065 0.9361 6.1630 17.2580 0.7317 -3.5936 -15.3437 0.0004 -0.1320 -0.3626 0.0000 0.0000 0.0000 25.8909 -1.0356 -5.8976 -0.3700 -3.9069 10.8149 -0.2459 -10.6110 -18.3893 -0.6326 -5.0890 14.1626 5.3976 -1.7418 -0.5051 3.5140 -2.2914 -1.0539 0.5972 -1.1696 -0.8694 -3.4882 -1.6645 -16.4612 -6.6520 0.1261 19.6885 -1.6761 -0.9282 8.9310 -0.0000 -0.0000 0.0000 -86.1206 7.9027 38.7341 21.8515 -32.8088 -6.5052 -0.0000 -0.0000 3.4362 -1.9484 44.4962 -1.3659 -7.1250 0.0000 -0.0000 -54.2014 66.7515 -32.1198 -0.0000 -0.0000 0.0000 82.4112 -4.8597 -12.0219 -7.6184 12.9325 -0.8647 0.0000 -0.0000 -0.1749 -9.7975 15.9577 -2.7181 7.1250 -0.0000 -0.0000 11.9802 -14.0442 8.9157
-1.3839 17.5482 10.2927 -2.1494 8.1591 7.8211 0.0000 0.0000 0.0000 -13.1638 -7.8797 -7.2722 0.9512 6.2109 17.3974 0.7393 -3.7912 -15.4045 0.0000 0.0081 0.0222 0.0000 0.0000 0.0000 26.5095 -0.1714 -5.3228 -0.3520 -3.8121 10.5486 -0.2025 -11.3998 -18.8163 -0.6750 -5.2534 14.6327 5.5855 -1.7672 -0.5102 3.6884 -2.3278 -0.9958 0.6713 -1.1865 -0.8084 -3.2278 -1.5498 -16.4796 -6.8263 0.2620 19.7652 -1.7635 -0.8667 8.9626 0.0000 0.0000 0.0000 -86.1194 7.9099 38.5168 21.9762 -32.9501 -6.5729 -0.0000 -0.0000 3.4884 -1.9219 44.5531 -1.3486 -7.1250 0.0000 -0.0000 -54.2842 66.7935 -32.2287 0.0000 0.0000 0.0000 82.4120 -4.9831 -13.5195 -7.3167 12.4393 -0.7985 0.0000 0.0000 1.4509 -9.4013 15.5382 -2.5396 7.1250 -0.0000 -0.0000 12.2532 -14.4862 9.0107
-1.3878 17.5468 10.2906 -2.4766 8.3085 7.8766 0.0000 0.0000 0.0000 -12.7176 -8.0713 -7.4802 0.9723 6.2774 17.5914 0.7457 -3.8746 -15.4645 0.0003 0.1194 0.3281 0.0000 0.0000 0.0000 26.9263 -0.0441 -5.2245 -0.3306 -3.6952 10.2206 -0.1714 -11.6907 -18.8102 -0.6902 -5.3113 14.7987 5.9470 -1.7991 -0.4354 3.8401 -2.3669 -0.9166 0.6286 -1.2059 -0.7788 -3.1996 -1.5393 -16.7621 -6.9194 0.3109 19.8086 -1.7988 -0.8582 9.0312 0.0000 -0.0000 0.0000 -86.3520 7.7807 38.0498 22.1774 -33.1770 -6.6827 -0.0000 -0.0000 3.7847 -1.8492 44.5728 -1.2980 -7.1250 0.0000 -0.0000 -54.2581 66.8277 -32.2484 0.0000 -0.0000 0.0000 82.4298 -5.1212 -14.3815 -7.1956 12.2407 -0.7726 0.0000 0.0000 2.2492 -9.6977 15.2212 -2.5690 7.1250 -0.0000 -0.0000 12.0631 -14.7795 8.7869
-1.3806 17.5483 10.3182 -2.2651 8.7407 7.9923 0.0000 0.0000 0.0000 -12.9172 -8.1745 -7.5666 0.9840 6.3141 17.6984 0.7586 -4.3495 -15.5618 0.0006 0.1610 0.4424 0.0000 0.0000 0.0000 26.7153 -0.7408 -5.3572 -0.3212 -3.6431 10.0746 -0.1959 -11.4478 -18.7976 -0.6769 -5.2609 14.6543 5.9801 -1.9641 -0.7363 3.7661 -2.6157 -0.8915 0.5237 -1.3265 -0.5971 -3.1374 -1.5075 -16.6254 -6.9186 0.3262 19.7595 -1.8040 -0.8422 8.9889 0.0000 0.0000 0.0000 -86.2061 7.8035 38.3438 22.3091 -33.3245 -6.7548 -0.0000 -0.0000 3.3978 -2.2577 45.1298 -1.6005 -7.1250 0.0000 -0.0000 -55.6637 67.0271 -33.5232 0.0000 0.0000 0.0000 82.4327 -5.6542 -14.7137 -7.0385 11.9826 -0.7396 0.0000 0.0000 2.7009 -9.5805 16.2051 -2.6969 7.1250 -0.0000 -0.0000 12.1191 -13.8151 9.0843
